<?xml version="1.0" standalone="no"?>
<!DOCTYPE svg PUBLIC "-//W3C//DTD SVG 20010904//EN"
 "http://www.w3.org/TR/2001/REC-SVG-20010904/DTD/svg10.dtd">
<svg version="1.0" xmlns="http://www.w3.org/2000/svg"
 width="500.000000pt" height="500.000000pt" viewBox="0 0 500.000000 500.000000"
 preserveAspectRatio="xMidYMid meet">
<metadata>
Created by potrace 1.14, written by Peter Selinger 2001-2017
</metadata>
<g transform="translate(0.000000,500.000000) scale(0.100000,-0.100000)"
fill="#000000" stroke="none">
<path d="M2865 4690 c-123 -13 -233 -67 -308 -150 -107 -118 -127 -315 -51
-488 26 -60 127 -210 211 -315 205 -256 276 -616 182 -929 -18 -64 -21 -68
-49 -68 l-30 0 0 325 0 325 -235 0 -235 0 0 -325 0 -325 -345 0 -345 0 0 -245
0 -245 343 -2 342 -3 3 -48 3 -47 -48 -21 c-276 -118 -591 -111 -868 21 -55
26 -128 68 -163 94 -59 44 -88 52 -76 22 16 -41 212 -173 330 -223 153 -65
221 -78 424 -78 160 1 196 4 267 23 176 48 337 136 470 257 137 124 259 329
309 520 24 87 27 120 28 260 0 134 -3 174 -22 248 -45 182 -106 299 -249 482
-113 146 -198 275 -224 344 -30 76 -37 209 -15 283 75 259 430 356 741 204
331 -163 549 -675 505 -1188 -6 -70 -22 -172 -35 -225 -32 -126 -109 -281
-174 -355 l-51 -56 -52 20 c-102 39 -225 14 -312 -63 -90 -78 -117 -230 -62
-343 91 -186 340 -225 485 -76 106 109 107 299 1 407 l-30 30 21 19 c71 64
162 231 203 376 39 136 49 241 43 453 -4 155 -10 209 -30 295 -67 280 -174
482 -340 637 -140 131 -348 195 -562 173z m573 -1955 c49 -21 110 -80 133
-130 24 -53 25 -147 0 -200 -75 -166 -299 -199 -416 -62 -34 39 -65 117 -65
162 0 43 30 121 62 159 63 76 194 109 286 71z"/>
<path d="M3250 2668 c-63 -34 -104 -112 -96 -181 3 -27 15 -64 26 -83 22 -35
85 -77 132 -88 68 -16 176 43 204 110 33 79 7 178 -62 231 -52 39 -141 44
-204 11z"/>
<path d="M3041 2683 c-6 -20 -9 -38 -8 -39 1 -2 13 15 25 37 18 31 20 39 8 39
-9 0 -19 -16 -25 -37z"/>
<path d="M2986 2535 c-104 -238 -308 -437 -561 -546 l-60 -26 -3 -176 -2 -177
225 0 225 0 0 325 0 325 150 0 150 0 -34 44 c-49 65 -69 132 -64 222 2 41 3
74 3 74 0 0 -13 -29 -29 -65z"/>
<path d="M645 1297 c-152 -86 -109 -309 67 -341 45 -8 113 6 147 31 34 26 36
38 6 57 -23 15 -28 15 -47 1 -13 -8 -43 -15 -71 -15 -40 0 -53 5 -78 29 -49
49 -36 146 22 177 39 20 86 18 124 -6 l32 -20 22 24 c27 29 23 40 -29 66 -55
28 -142 27 -195 -3z"/>
<path d="M982 1140 l-80 -180 42 0 c40 0 44 2 61 40 l18 40 79 0 79 0 17 -40
c16 -38 19 -40 60 -40 23 0 42 3 41 8 0 4 -35 84 -77 177 l-77 170 -41 3 -41
3 -81 -181z m125 -38 c-27 -2 -51 -1 -53 1 -2 2 3 21 12 43 9 21 21 50 26 64
9 23 11 21 37 -40 l27 -65 -49 -3z"/>
<path d="M1340 1140 l0 -180 40 0 40 0 0 50 0 50 39 0 c35 0 42 -4 72 -50 32
-46 37 -50 77 -50 23 0 42 3 42 6 0 4 -16 28 -35 54 l-35 48 29 30 c72 72 41
184 -58 212 -20 5 -75 10 -123 10 l-88 0 0 -180z m198 94 c15 -10 22 -25 22
-49 0 -43 -20 -55 -89 -55 l-51 0 0 60 0 60 48 0 c27 0 57 -7 70 -16z"/>
<path d="M1717 1314 c-4 -4 -7 -85 -7 -181 l0 -173 140 0 140 0 0 35 0 35 -95
0 -95 0 0 40 0 40 80 0 80 0 0 30 0 30 -80 0 -80 0 0 40 0 40 96 0 95 0 -3 33
-3 32 -131 3 c-71 1 -133 -1 -137 -4z"/>
<path d="M2278 1300 c-79 -42 -117 -138 -89 -223 16 -47 79 -103 132 -117 63
-17 155 4 187 43 9 11 7 19 -13 37 -23 22 -25 22 -49 6 -32 -21 -105 -21 -135
0 -36 26 -54 77 -41 123 14 51 41 73 98 79 37 3 53 0 72 -16 24 -19 24 -19 52
1 15 11 28 24 28 28 0 5 -20 20 -43 34 -55 32 -143 34 -199 5z"/>
<path d="M2653 1301 c-75 -35 -119 -136 -93 -216 20 -60 65 -103 127 -121 132
-38 253 45 253 175 0 29 -6 64 -14 79 -19 36 -65 78 -99 91 -44 17 -127 13
-174 -8z m165 -76 c52 -44 54 -120 5 -169 -21 -21 -35 -26 -75 -26 -41 0 -54
5 -79 29 -23 24 -29 38 -29 73 1 24 7 54 14 67 30 55 114 68 164 26z"/>
<path d="M3007 1313 c-4 -3 -7 -84 -7 -180 l0 -173 45 0 45 0 0 50 0 50 38 0
c33 0 40 -5 70 -50 31 -48 34 -50 77 -50 l45 0 -36 55 -37 55 32 35 c26 30 31
44 31 86 0 91 -63 129 -216 129 -44 0 -84 -3 -87 -7z m203 -83 c24 -24 26 -57
3 -82 -12 -13 -30 -18 -70 -18 l-53 0 0 60 0 60 50 0 c37 0 55 -5 70 -20z"/>
<path d="M3380 1140 l0 -180 40 0 39 0 3 106 3 106 85 -106 c80 -99 87 -105
123 -105 l37 -1 0 181 0 180 -42 -3 -43 -3 -3 -103 -3 -103 -86 105 c-78 97
-88 106 -119 106 l-34 0 0 -180z"/>
<path d="M3790 1140 l0 -180 140 0 140 0 0 35 0 35 -95 0 -95 0 0 40 0 40 80
0 80 0 0 30 0 30 -80 0 -80 0 0 40 0 40 90 0 90 0 0 35 0 35 -135 0 -135 0 0
-180z"/>
<path d="M4137 1313 c-4 -3 -7 -84 -7 -180 l0 -173 45 0 45 0 0 50 0 50 38 0
c33 0 40 -5 70 -50 31 -48 34 -50 77 -50 l45 0 -36 55 -37 55 32 35 c26 30 31
44 31 86 0 91 -63 129 -216 129 -44 0 -84 -3 -87 -7z m203 -83 c24 -24 26 -57
3 -82 -12 -13 -30 -18 -70 -18 l-53 0 0 60 0 60 50 0 c37 0 55 -5 70 -20z"/>
</g>
</svg>
